<?xml version="1.0" encoding="utf-8"?>
<!DOCTYPE svg PUBLIC "-//W3C//DTD SVG 1.1//EN" "http://www.w3.org/Graphics/SVG/1.1/DTD/svg11.dtd">
<svg version="1.1" xmlns="http://www.w3.org/2000/svg" xmlns:xlink="http://www.w3.org/1999/xlink" x="0px" y="0px"
	 width="697.746px" height="138.946px" viewBox="0 0 697.746 138.946" enable-background="new 0 0 697.746 138.946"
	 xml:space="preserve">
<g>
	<polygon fill="#EE2329" points="63.166,66.008 120.33,33.004 63.166,0.001 	"/>
	<polygon fill="#FABC15" points="57.164,69.473 0,36.469 0,102.479 	"/>
	<polygon fill="#F47D20" points="59.164,0 2,33.004 59.164,66.008 	"/>
	<polygon fill="#10ACDF" points="63.166,138.946 120.33,105.942 63.166,72.938 	"/>
	<polygon fill="#1BA64E" points="59.164,72.938 2,105.942 59.164,138.944 	"/>
</g>
<g>
	<path d="M205.783,90.433c0.478,0,0.953,0.081,1.431,0.261c0.475,0.181,0.933,0.491,1.369,0.924l7.989,8.41
		c-3.499,4.565-7.88,8.014-13.144,10.343c-5.267,2.316-11.497,3.484-18.69,3.484c-6.596,0-12.506-1.122-17.733-3.37
		c-5.228-2.24-9.658-5.341-13.293-9.303c-3.637-3.953-6.429-8.636-8.376-14.066c-1.949-5.422-2.92-11.316-2.92-17.675
		c0-6.477,1.111-12.426,3.338-17.853c2.226-5.426,5.336-10.104,9.329-14.039c3.993-3.935,8.772-6.996,14.336-9.18
		c5.564-2.187,11.702-3.277,18.42-3.277c3.258,0,6.328,0.288,9.21,0.86c2.882,0.577,5.575,1.37,8.076,2.389
		c2.505,1.01,4.809,2.223,6.918,3.633c2.104,1.411,3.97,2.974,5.599,4.684l-6.793,9.122c-0.438,0.553-0.954,1.058-1.55,1.513
		c-0.598,0.46-1.432,0.689-2.504,0.689c-0.715,0-1.393-0.157-2.026-0.478c-0.637-0.315-1.311-0.707-2.027-1.162
		c-0.715-0.459-1.501-0.956-2.354-1.492c-0.856-0.532-1.868-1.031-3.042-1.486c-1.172-0.456-2.542-0.849-4.113-1.163
		c-1.57-0.321-3.407-0.479-5.514-0.479c-3.658,0-6.995,0.645-10.014,1.938c-3.022,1.29-5.614,3.137-7.779,5.543
		c-2.168,2.407-3.855,5.319-5.068,8.73c-1.212,3.416-1.816,7.255-1.816,11.506c0,4.453,0.604,8.404,1.816,11.863
		c1.213,3.455,2.862,6.371,4.949,8.732c2.086,2.371,4.52,4.169,7.303,5.4c2.779,1.229,5.76,1.843,8.942,1.843
		c1.825,0,3.495-0.09,5.007-0.261c1.508-0.181,2.912-0.492,4.203-0.93c1.289-0.433,2.521-1,3.696-1.699
		c1.171-0.693,2.353-1.555,3.547-2.59c0.478-0.401,0.991-0.73,1.55-0.983C204.609,90.554,205.186,90.433,205.783,90.433z"/>
	<path d="M306.583,112.904h-15.617c-1.75,0-3.188-0.41-4.322-1.222c-1.133-0.82-1.917-1.861-2.355-3.132l-5.127-15.144h-33.023
		l-5.127,15.144c-0.398,1.112-1.174,2.113-2.323,3.006c-1.153,0.896-2.564,1.348-4.234,1.348h-15.737l33.621-86.862h20.626
		L306.583,112.904z M250.787,79.688h23.727l-7.989-23.783c-0.518-1.51-1.122-3.285-1.818-5.332c-0.696-2.05-1.382-4.264-2.056-6.647
		c-0.638,2.424-1.293,4.674-1.969,6.738c-0.674,2.068-1.31,3.858-1.907,5.363L250.787,79.688z"/>
	<path d="M333.768,96.806h32.191v16.099H313.62V26.042h20.147V96.806z"/>
	<path d="M431.411,26.042v15.503h-35.649v20.263h27.303v14.905h-27.303V97.4h35.649v15.504h-55.918V26.042H431.411z"/>
	<path d="M486.13,79.872v33.032h-20.15V79.872l-31.467-53.83h17.762c1.743,0,3.132,0.41,4.164,1.221
		c1.031,0.815,1.87,1.857,2.51,3.132l12.277,25.271c0.992,2.032,1.911,3.897,2.739,5.605c0.839,1.713,1.577,3.398,2.209,5.066
		c0.596-1.709,1.312-3.413,2.146-5.129c0.839-1.704,1.73-3.547,2.686-5.543l12.16-25.271c0.238-0.513,0.567-1.031,0.987-1.55
		c0.41-0.513,0.893-0.981,1.424-1.401c0.536-0.414,1.149-0.751,1.847-1.014c0.695-0.257,1.461-0.387,2.295-0.387h17.889
		L486.13,79.872z"/>
	<path d="M602.371,69.44c0,6.282-1.081,12.07-3.25,17.383c-2.163,5.304-5.214,9.892-9.152,13.767
		c-3.936,3.873-8.667,6.893-14.21,9.064c-5.544,2.167-11.695,3.25-18.456,3.25H523.56V26.042h33.743
		c6.761,0,12.912,1.091,18.456,3.281c5.543,2.182,10.274,5.206,14.21,9.06c3.938,3.853,6.989,8.437,9.152,13.741
		C601.29,57.433,602.371,63.202,602.371,69.44z M581.743,69.44c0-4.291-0.56-8.167-1.663-11.625
		c-1.117-3.457-2.718-6.39-4.809-8.793c-2.082-2.401-4.634-4.25-7.658-5.543c-3.019-1.294-6.458-1.934-10.311-1.934h-13.477V97.4
		h13.477c3.853,0,7.292-0.645,10.311-1.934c3.024-1.298,5.576-3.142,7.658-5.543c2.091-2.403,3.691-5.347,4.809-8.798
		C581.184,77.664,581.743,73.774,581.743,69.44z"/>
	<path d="M697.746,69.44c0,6.282-1.082,12.118-3.245,17.531c-2.172,5.404-5.219,10.104-9.153,14.098
		c-3.939,3.993-8.676,7.116-14.225,9.393c-5.533,2.263-11.685,3.394-18.441,3.394c-6.76,0-12.922-1.131-18.478-3.394
		c-5.572-2.276-10.331-5.399-14.282-9.393c-3.953-3.993-7.013-8.693-9.176-14.098c-2.165-5.413-3.25-11.249-3.25-17.531
		c0-6.274,1.085-12.12,3.25-17.523c2.163-5.409,5.223-10.095,9.176-14.07c3.951-3.972,8.71-7.095,14.282-9.362
		c5.556-2.262,11.718-3.393,18.478-3.393c6.757,0,12.908,1.141,18.441,3.43c5.549,2.279,10.285,5.413,14.225,9.387
		c3.935,3.97,6.981,8.663,9.153,14.065C696.664,57.383,697.746,63.202,697.746,69.44z M677.123,69.44
		c0-4.291-0.559-8.153-1.677-11.597c-1.104-3.434-2.705-6.345-4.795-8.729c-2.083-2.384-4.635-4.214-7.663-5.485
		c-3.02-1.271-6.454-1.907-10.307-1.907c-3.899,0-7.368,0.636-10.401,1.907c-3.042,1.271-5.611,3.101-7.693,5.485
		c-2.082,2.385-3.683,5.295-4.796,8.729c-1.117,3.444-1.677,7.306-1.677,11.597c0,4.334,0.56,8.215,1.677,11.654
		c1.113,3.434,2.714,6.351,4.796,8.739c2.082,2.384,4.651,4.195,7.693,5.454c3.033,1.252,6.502,1.879,10.401,1.879
		c3.853,0,7.287-0.627,10.307-1.879c3.028-1.259,5.58-3.07,7.663-5.454c2.09-2.389,3.69-5.306,4.795-8.739
		C676.564,77.655,677.123,73.774,677.123,69.44z"/>
</g>
</svg>
